<svg width="380" height="387" viewBox="0 0 380 387" fill="none" xmlns="http://www.w3.org/2000/svg">
<g clip-path="url(#clip0_197_62)">
<path d="M64.7099 141.19C59.4799 154.38 49.4799 164.92 40.3099 175.68C26.8999 191.41 14.6999 208.55 7.23994 227.91C-0.220065 247.27 -2.66007 269.13 3.47993 288.96C13.1099 320.03 45.5999 342.52 77.5699 338.96C106.13 335.78 129.57 314.85 157.06 306.25C179.5 299.25 203.61 300.74 226.96 303.25C250.274 305.797 273.737 306.733 297.18 306.05C412.26 302.73 387.18 183.12 338.1 128.05C299.05 84.33 262.16 36.33 186.67 38.45C93.1699 41.05 68.1999 132.33 64.7099 141.19Z" fill="#FFE6B3"/>
<mask id="mask0_197_62" style="mask-type:luminance" maskUnits="userSpaceOnUse" x="0" y="38" width="380" height="302">
<path d="M64.7099 141.19C59.4799 154.38 49.4799 164.92 40.3099 175.68C26.8999 191.41 14.6999 208.55 7.23994 227.91C-0.220065 247.27 -2.66007 269.13 3.47993 288.96C13.1099 320.03 45.5999 342.52 77.5699 338.96C106.13 335.78 129.57 314.85 157.06 306.25C179.5 299.25 203.61 300.74 226.96 303.25C250.274 305.797 273.737 306.733 297.18 306.05C412.26 302.73 387.18 183.12 338.1 128.05C299.05 84.33 262.16 36.33 186.67 38.45C93.1699 41.05 68.1999 132.33 64.7099 141.19Z" fill="white"/>
</mask>
<g mask="url(#mask0_197_62)">
<path d="M28.3398 289.54C27.7485 288.467 27.504 287.237 27.6398 286.02C28.1798 283.35 31.9598 281.49 34.3598 282.78C38.6998 285.12 42.1098 286.22 43.9798 284.24C46.5898 281.48 42.3798 274.14 39.6898 271.48C35.5698 267.39 30.6898 264.12 26.6898 259.85C22.6898 255.58 18.0498 249.33 20.7198 244.14C23.8398 238.08 36.7199 257.56 36.2099 250.71C34.7199 242.92 30.7998 232.71 28.6098 225.08C26.4198 217.45 24.6898 206.35 31.6098 202.51C43.6098 195.9 45.9299 228.27 49.2399 240.75C50.2399 244.35 52.5098 248.6 56.2398 248.22C58.4298 247.99 60.0598 246.14 62.0498 245.22C66.2698 243.15 72.0498 246.13 72.8598 250.77C73.7098 255.77 69.6599 260.04 67.3199 264.53C64.2599 270.41 60.1898 281.32 63.8698 286.84C67.6698 292.55 74.6098 282.96 76.6298 281.75C78.6498 280.54 81.2198 279.75 83.3398 280.75C86.7798 282.41 86.5098 292.75 86.0898 296.56C84.6998 309.12 83.9098 343.88 83.3898 343.68C76.1298 340.95 56.8498 323.06 52.0598 318.56C42.9498 309.98 33.5098 301.18 28.3398 289.54Z" fill="url(#paint0_linear_197_62)"/>
<path d="M42.6097 299.33C50.3097 307.33 59.4497 316.33 69.8497 320.67C69.8865 320.691 69.9271 320.705 69.9691 320.71C70.0111 320.715 70.0537 320.712 70.0946 320.701C70.1354 320.69 70.1737 320.671 70.2072 320.645C70.2407 320.619 70.2687 320.587 70.2897 320.55C70.3108 320.513 70.3243 320.473 70.3297 320.431C70.335 320.389 70.332 320.346 70.3209 320.305C70.3097 320.264 70.2906 320.226 70.2647 320.193C70.2388 320.159 70.2065 320.131 70.1697 320.11C60.2897 313.79 51.3597 307.27 43.1197 298.82C42.7897 298.48 42.2797 299 42.6097 299.33Z" fill="#D34A8C"/>
<path d="M75.5099 293.33C75.4026 298.423 74.8673 303.497 73.9099 308.5C73.0199 313.1 71.3599 317.62 70.6899 322.25C70.6768 322.34 70.6971 322.431 70.747 322.507C70.7968 322.583 70.8728 322.637 70.9604 322.661C71.048 322.684 71.1411 322.675 71.2222 322.634C71.3032 322.593 71.3665 322.524 71.3999 322.44C75.0799 313.58 76.4999 302.87 76.3999 293.33C76.3999 293.219 76.3557 293.112 76.2769 293.033C76.1981 292.954 76.0913 292.91 75.9799 292.91C75.8685 292.91 75.7617 292.954 75.6829 293.033C75.6042 293.112 75.5599 293.219 75.5599 293.33H75.5099Z" fill="#D34A8C"/>
<path d="M26.4699 253.49C34.0099 260.05 41.7999 266.68 49.8099 272.65C50.2099 272.94 50.6699 272.31 50.3299 271.97C43.2599 264.97 34.5699 259.43 26.9899 252.97C26.6299 252.66 26.1199 253.17 26.4699 253.48V253.49Z" fill="#D34A8C"/>
<path d="M62.2099 254.8C57.8999 261.8 53.3499 270.57 51.8699 278.8C51.7999 279.19 52.3699 279.51 52.5699 279.09C54.5699 275.09 55.7599 270.64 57.5699 266.53C59.2399 262.74 61.0299 258.95 62.9599 255.29C63.0196 255.189 63.0368 255.069 63.0077 254.955C62.9787 254.842 62.9057 254.745 62.8049 254.685C62.7041 254.625 62.5838 254.608 62.4703 254.637C62.3569 254.666 62.2596 254.739 62.1999 254.84L62.2099 254.8Z" fill="#D34A8C"/>
<path d="M34.9899 218.33C38.3699 241.07 45.8299 263.78 53.6299 285.33C61.7399 307.73 72.3199 330.33 86.9399 349.25C89.6599 352.78 93.1599 355.7 95.8799 359.13C96.2299 359.57 96.8799 358.94 96.4999 358.5C94.3699 355.81 91.9899 353.3 89.8599 350.58C83.7648 342.586 78.3271 334.112 73.5999 325.24C60.5999 301.52 51.5399 276.24 44.2099 250.24C41.2099 239.62 38.2099 228.84 36.5099 217.92C36.3499 216.92 34.8499 217.35 34.9899 218.34V218.33Z" fill="#D34A8C"/>
<path d="M67.5198 295.88C67.3431 294.886 67.4794 293.863 67.9098 292.95C69.0598 291.02 72.4998 290.59 74.0198 292.24C76.7598 295.24 79.1198 297 81.1098 295.96C83.8698 294.52 82.5798 287.68 81.1998 284.88C79.0898 280.59 76.1998 276.73 74.1998 272.35C72.1998 267.97 70.2998 261.82 73.7598 258.51C77.8098 254.64 82.5798 273.25 84.0398 267.8C84.9798 261.33 84.6698 252.34 85.0398 245.8C85.4098 239.26 87.0398 230.17 93.4598 229.05C104.54 227.12 97.6598 252.94 96.8898 263.54C96.6598 266.54 97.3198 270.54 100.3 271.22C102.07 271.63 103.83 270.63 105.63 270.41C106.581 270.351 107.534 270.5 108.422 270.847C109.31 271.194 110.112 271.73 110.771 272.418C111.431 273.106 111.933 273.93 112.241 274.832C112.55 275.734 112.659 276.692 112.56 277.64C111.87 281.75 107.56 283.99 104.56 286.85C100.56 290.6 94.4898 298 95.8698 303.28C97.2898 308.75 105.27 303.15 107.16 302.75C109.05 302.35 111.27 302.44 112.64 303.81C114.87 306.03 111.87 314.01 110.52 316.81C106.07 326.21 96.1098 353.03 95.7498 352.74C90.8398 348.66 80.6598 329.56 78.1498 324.74C73.3798 315.71 68.3998 306.33 67.5198 295.88Z" fill="url(#paint1_linear_197_62)"/>
<path d="M75.99 307.33C79.83 315.6 84.52 325.07 91.44 331.25C91.4893 331.296 91.5543 331.323 91.622 331.323C91.6897 331.324 91.7553 331.299 91.8056 331.254C91.856 331.209 91.8874 331.146 91.8938 331.079C91.9002 331.011 91.8809 330.944 91.8399 330.89C88.7709 327.248 85.8969 323.446 83.2299 319.5C80.7431 315.49 78.5024 311.332 76.52 307.05C76.36 306.7 75.83 306.98 75.99 307.33Z" fill="#F9A89A"/>
<path d="M103.19 311.5C101.738 315.423 99.9581 319.216 97.8699 322.84C95.9399 326.19 93.4099 329.26 91.6699 332.69C91.5299 332.97 91.8699 333.35 92.1199 333.08C97.4099 327.2 101.4 319.18 103.85 311.72C103.868 311.636 103.854 311.548 103.812 311.473C103.769 311.398 103.7 311.342 103.618 311.315C103.537 311.287 103.448 311.291 103.369 311.326C103.29 311.36 103.226 311.422 103.19 311.5Z" fill="#F9A89A"/>
<path d="M75.7598 267.33C79.8398 274.44 84.0998 281.66 88.7098 288.44C88.9598 288.8 89.5498 288.53 89.3398 288.11C85.7298 280.75 80.4598 274.11 76.3398 267.06C76.1498 266.73 75.6198 267 75.8098 267.33H75.7598Z" fill="#F9A89A"/>
<path d="M103.19 277.97C97.9499 282.33 92.0499 287.85 88.7099 293.83C88.5499 294.12 88.9199 294.5 89.1899 294.23C91.7999 291.62 93.9399 288.52 96.4599 285.8C98.7799 283.31 101.2 280.8 103.68 278.51C103.752 278.445 103.794 278.354 103.799 278.258C103.804 278.161 103.77 278.067 103.705 277.995C103.64 277.923 103.549 277.881 103.453 277.876C103.356 277.871 103.261 277.905 103.19 277.97Z" fill="#F9A89A"/>
<path d="M91.86 242.14C88.42 260.49 88.08 279.85 88.3 298.46C88.53 318.33 90.63 339.04 96.98 357.97C98.15 361.46 100.1 364.7 101.3 368.11C101.45 368.55 102.16 368.4 102 367.96C101.08 365.3 99.91 362.73 99 360.07C96.4896 352.489 94.5803 344.721 93.29 336.84C89.41 314.71 89.13 292.44 90.41 270.05C90.93 260.83 91.5 251.48 93.13 242.37C93.26 241.66 92.01 241.37 91.87 242.14H91.86Z" fill="#F9A89A"/>
<path d="M309.39 225.01C315.06 212.12 323.62 200.71 329.88 188.09C335.929 175.863 339.752 162.657 341.17 149.09C351.28 174.4 360.35 201.83 354.66 228.48C351.4 243.69 343.54 257.48 338.56 272.23C333.42 287.47 332.69 302.67 340.03 317.16C329.03 316.34 298.95 296.84 301.96 255.11C302.698 244.726 305.211 234.545 309.39 225.01Z" fill="url(#paint2_linear_197_62)"/>
<path d="M341.6 173.33C343.69 194.81 332.18 215.81 324.55 235.18C318.2 251.32 312.67 271 317.32 288.18C320.62 300.38 329.05 310.88 339.38 317.97C339.611 318.129 339.895 318.193 340.173 318.148C340.45 318.103 340.699 317.952 340.868 317.728C341.037 317.503 341.113 317.222 341.08 316.943C341.047 316.664 340.907 316.408 340.69 316.23C328.69 306.16 319.27 294.74 318.14 278.54C317.25 265.92 320.99 253.42 324.55 241.47C331.18 219.22 345.68 197.19 342.91 173.07C342.81 172.22 341.52 172.43 341.6 173.28V173.33Z" fill="#D34A8C"/>
<path d="M275.12 259.67C275.36 248.3 278.74 237.09 279.6 225.74C280.417 214.716 278.866 203.645 275.05 193.27C293.56 208.65 311.92 225.94 316.81 247.46C319.6 259.75 317.73 272.46 318.81 285C319.91 297.92 324.95 309.38 336.94 317.68C326.8 320.68 292.63 316.07 279.7 284.29C276.508 276.482 274.949 268.103 275.12 259.67Z" fill="url(#paint3_linear_197_62)"/>
<path d="M284.65 211.08C294.96 226.82 291.36 246.91 292.72 264.57C293.82 278.89 296.41 294.42 307.1 304.91C314.95 312.61 326.1 317.03 336.87 318.61C338.08 318.78 338.21 317.04 337.09 316.76C326.68 314.16 316.4 311.16 308.52 303.46C302.73 297.8 299.35 290.46 297.41 282.71C293.8 268.33 294.61 253.96 293.51 239.32C292.76 229.4 291.26 218.79 285.51 210.38C285.1 209.78 284.23 210.48 284.62 211.08H284.65Z" fill="#E79032"/>
</g>
<path d="M306.13 123.16C322.73 111.481 326.718 88.5568 315.039 71.9573C303.36 55.3579 280.435 51.3693 263.836 63.0486C247.236 74.7279 243.248 97.6523 254.927 114.252C266.606 130.851 289.531 134.84 306.13 123.16Z" fill="url(#paint4_linear_197_62)"/>
<path d="M278.89 125.81C272.421 124.605 266.455 121.509 261.746 116.914C257.036 112.318 253.795 106.43 252.433 99.9922C251.07 93.5548 251.647 86.8579 254.09 80.7484C256.534 74.6388 260.734 69.391 266.16 65.6684C271.585 61.9459 277.993 59.9158 284.573 59.835C291.152 59.7541 297.608 61.626 303.124 65.2141C308.639 68.8021 312.967 73.9451 315.56 79.9928C318.153 86.0404 318.894 92.7211 317.69 99.19C316.066 107.86 311.068 115.532 303.794 120.523C296.52 125.513 287.564 127.415 278.89 125.81ZM290.7 62.39C284.625 61.2598 278.352 61.9564 272.673 64.3918C266.994 66.8271 262.165 70.8918 258.796 76.0719C255.428 81.2519 253.671 87.3145 253.748 93.493C253.825 99.6715 255.733 105.688 259.23 110.783C262.727 115.877 267.656 119.82 273.394 122.113C279.132 124.405 285.42 124.945 291.465 123.664C297.51 122.382 303.039 119.337 307.352 114.913C311.666 110.489 314.571 104.885 315.7 98.81C317.205 90.6663 315.418 82.2581 310.731 75.4302C306.045 68.6024 298.84 63.9127 290.7 62.39Z" fill="white"/>
<path d="M296.62 96.83C295.937 95.2994 294.856 93.9802 293.49 93.01C291.411 91.6123 289.184 90.4486 286.85 89.54L288.13 82.65C289.003 82.9176 289.798 83.3909 290.45 84.03C290.876 84.4832 291.194 85.0268 291.38 85.62C291.601 86.2936 292.008 86.8916 292.552 87.3459C293.097 87.8002 293.758 88.0927 294.46 88.19C296.89 88.54 298.91 86.46 298.14 84.29C297.758 83.213 297.174 82.2186 296.42 81.36C294.86 79.5734 292.42 78.2634 289.1 77.43L290.1 72.22C290.13 71.9236 290.047 71.6268 289.869 71.3882C289.691 71.1496 289.429 70.9865 289.137 70.9313C288.844 70.876 288.541 70.9325 288.288 71.0896C288.035 71.2468 287.85 71.4931 287.77 71.78L286.77 76.95C284.722 76.5691 282.623 76.5522 280.57 76.9C278.783 77.1893 277.122 78.0039 275.8 79.24C274.623 80.3401 273.828 81.7869 273.53 83.37C273.306 84.5732 273.365 85.8119 273.701 86.9885C274.038 88.1651 274.644 89.2474 275.47 90.15C276.71 91.62 279.06 93.15 282.54 94.62L283.41 94.99L281.83 103.52C280.452 103.19 279.2 102.463 278.23 101.43C277.601 100.691 277.155 99.814 276.93 98.87C276.74 98.156 276.333 97.5186 275.765 97.0458C275.197 96.5729 274.497 96.2879 273.76 96.23C273.272 96.1532 272.773 96.1944 272.305 96.3501C271.836 96.5059 271.412 96.7717 271.067 97.1252C270.722 97.4787 270.467 97.9097 270.323 98.3821C270.179 98.8544 270.151 99.3543 270.24 99.84C270.604 101.562 271.403 103.163 272.56 104.49C274.34 106.54 277.11 107.97 280.84 108.8L279.84 113.98C279.81 114.276 279.892 114.573 280.071 114.812C280.249 115.05 280.51 115.214 280.803 115.269C281.096 115.324 281.399 115.268 281.652 115.11C281.905 114.953 282.09 114.707 282.17 114.42L283.17 109.23C285.21 109.561 287.29 109.561 289.33 109.23C291.278 108.917 293.083 108.013 294.5 106.64C295.764 105.383 296.635 103.785 297.008 102.042C297.381 100.298 297.239 98.4843 296.6 96.82L296.62 96.83ZM280.75 86.21C280.492 85.9509 280.299 85.6349 280.186 85.2875C280.074 84.9401 280.044 84.571 280.1 84.21C280.166 83.8228 280.333 83.4598 280.584 83.1578C280.835 82.8557 281.161 82.6254 281.53 82.49C282.903 81.9895 284.386 81.8719 285.82 82.15L284.62 88.61C283.201 88.0386 281.892 87.2267 280.75 86.21ZM288.05 103.42C286.831 103.954 285.487 104.138 284.17 103.95L285.65 95.95C286.65 96.39 287.32 96.73 287.73 96.95C288.592 97.3599 289.34 97.9745 289.91 98.74C290.282 99.3359 290.411 100.052 290.27 100.74C290.142 101.332 289.873 101.884 289.487 102.351C289.1 102.817 288.608 103.184 288.05 103.42Z" fill="white"/>
<path d="M294.31 180.65C305.615 180.65 314.78 171.485 314.78 160.18C314.78 148.875 305.615 139.71 294.31 139.71C283.005 139.71 273.84 148.875 273.84 160.18C273.84 171.485 283.005 180.65 294.31 180.65Z" fill="url(#paint5_linear_197_62)"/>
<path d="M281.21 173.33C278.618 170.739 276.852 167.437 276.136 163.842C275.421 160.248 275.787 156.522 277.19 153.135C278.592 149.749 280.967 146.854 284.014 144.818C287.062 142.782 290.645 141.695 294.31 141.695C297.975 141.695 301.558 142.782 304.605 144.818C307.653 146.854 310.028 149.749 311.43 153.135C312.832 156.522 313.199 160.248 312.483 163.842C311.768 167.437 310.002 170.739 307.41 173.33C303.934 176.801 299.222 178.751 294.31 178.751C289.397 178.751 284.686 176.801 281.21 173.33ZM306.61 147.92C304.176 145.487 301.076 143.83 297.701 143.159C294.325 142.488 290.827 142.833 287.648 144.15C284.469 145.467 281.751 147.697 279.84 150.558C277.928 153.42 276.907 156.784 276.907 160.225C276.907 163.666 277.928 167.03 279.84 169.892C281.751 172.753 284.469 174.983 287.648 176.3C290.827 177.617 294.325 177.962 297.701 177.291C301.076 176.62 304.176 174.963 306.61 172.53C308.231 170.912 309.517 168.99 310.395 166.874C311.272 164.759 311.724 162.491 311.724 160.2C311.724 157.909 311.272 155.641 310.395 153.526C309.517 151.41 308.231 149.488 306.61 147.87V147.92Z" fill="white"/>
<path d="M298.48 165.56C298.646 164.642 298.567 163.697 298.25 162.82C297.718 161.522 297.047 160.285 296.25 159.13L299.05 156.33C299.363 156.728 299.579 157.194 299.68 157.69C299.728 158.025 299.7 158.367 299.6 158.69C299.49 159.07 299.489 159.472 299.597 159.852C299.705 160.233 299.917 160.575 300.21 160.84C300.415 161.06 300.674 161.223 300.961 161.313C301.249 161.403 301.554 161.417 301.849 161.353C302.143 161.29 302.415 161.151 302.64 160.951C302.865 160.75 303.033 160.495 303.13 160.21C303.289 159.593 303.334 158.953 303.26 158.32C302.987 156.766 302.248 155.333 301.14 154.21L303.23 152.12C303.353 151.995 303.422 151.827 303.421 151.651C303.42 151.476 303.349 151.308 303.225 151.185C303.1 151.062 302.932 150.993 302.756 150.994C302.581 150.995 302.413 151.065 302.29 151.19L300.22 153.33C299.402 152.502 298.444 151.825 297.39 151.33C296.482 150.896 295.464 150.746 294.47 150.9C293.581 151.034 292.758 151.447 292.12 152.08C291.638 152.562 291.275 153.148 291.058 153.793C290.841 154.439 290.777 155.126 290.87 155.8C291.172 157.346 291.803 158.809 292.72 160.09L293 160.53L289.58 163.95C289.051 163.365 288.703 162.639 288.58 161.86C288.524 161.321 288.596 160.776 288.79 160.27C288.926 159.883 288.939 159.463 288.828 159.067C288.718 158.672 288.488 158.32 288.17 158.06C287.969 157.872 287.726 157.734 287.462 157.659C287.197 157.583 286.918 157.572 286.648 157.625C286.379 157.679 286.125 157.797 285.91 157.968C285.695 158.139 285.523 158.359 285.41 158.61C285.036 159.518 284.899 160.505 285.01 161.48C285.309 163.232 286.169 164.839 287.46 166.06L285.38 168.14C285.273 168.266 285.218 168.428 285.225 168.593C285.232 168.759 285.301 168.915 285.418 169.032C285.535 169.149 285.691 169.218 285.856 169.225C286.022 169.232 286.183 169.177 286.31 169.07L288.39 167C289.222 167.796 290.178 168.451 291.22 168.94C292.211 169.415 293.327 169.569 294.41 169.38C295.404 169.217 296.324 168.749 297.04 168.04C297.754 167.374 298.256 166.511 298.48 165.56ZM294.54 155.68C294.5 155.475 294.51 155.264 294.569 155.063C294.628 154.863 294.735 154.68 294.88 154.53C295.034 154.375 295.225 154.262 295.435 154.203C295.645 154.143 295.867 154.139 296.08 154.19C296.869 154.395 297.588 154.809 298.16 155.39L295.57 157.98C295.096 157.278 294.748 156.5 294.54 155.68ZM292.47 165.88C291.738 165.739 291.061 165.392 290.52 164.88L293.71 161.69C294.02 162.2 294.23 162.57 294.35 162.8C294.619 163.259 294.771 163.778 294.79 164.31C294.769 164.692 294.601 165.05 294.32 165.31C294.081 165.549 293.788 165.725 293.466 165.825C293.143 165.924 292.801 165.943 292.47 165.88Z" fill="white"/>
<path d="M53.3127 187.812C60.3518 180.292 59.9624 168.49 52.4428 161.451C44.9233 154.412 33.1212 154.801 26.0821 162.321C19.043 169.84 19.4325 181.642 26.952 188.681C34.4715 195.72 46.2736 195.331 53.3127 187.812Z" fill="url(#paint6_linear_197_62)"/>
<path d="M50.6899 187.88C48.1567 190.054 45.0359 191.428 41.7218 191.829C38.4078 192.229 35.0494 191.638 32.0713 190.13C29.0932 188.622 26.629 186.265 24.9904 183.357C23.3517 180.448 22.6122 177.12 22.8652 173.791C23.1183 170.463 24.3525 167.284 26.4119 164.657C28.4714 162.029 31.2635 160.072 34.4354 159.031C37.6072 157.991 41.0164 157.914 44.2318 158.811C47.4472 159.708 50.3245 161.538 52.4999 164.07C55.4134 167.469 56.8592 171.885 56.5198 176.349C56.1805 180.813 54.0838 184.96 50.6899 187.88ZM29.3599 163.04C26.9794 165.083 25.2583 167.787 24.4143 170.808C23.5703 173.829 23.6413 177.033 24.6183 180.014C25.5953 182.995 27.4345 185.62 29.9032 187.556C32.3718 189.491 35.3591 190.651 38.4872 190.889C41.6153 191.127 44.7436 190.432 47.4766 188.892C50.2095 187.351 52.4243 185.035 53.8408 182.236C55.2572 179.437 55.8118 176.281 55.4343 173.166C55.0568 170.052 53.7641 167.12 51.7199 164.74C48.9782 161.553 45.0838 159.583 40.8916 159.265C36.6993 158.946 32.552 160.304 29.3599 163.04Z" fill="white"/>
<path d="M44.8699 171.65C44.0517 171.425 43.1881 171.425 42.3699 171.65C41.1565 172.033 39.9867 172.542 38.8799 173.17L36.5599 170.48C36.9444 170.217 37.3872 170.053 37.8499 170C38.1633 169.974 38.4785 170.022 38.7699 170.14C39.1085 170.259 39.4728 170.285 39.8247 170.214C40.1766 170.144 40.5031 169.98 40.7699 169.74C40.9833 169.567 41.1483 169.342 41.249 169.087C41.3496 168.831 41.3824 168.554 41.3441 168.282C41.3059 168.011 41.1979 167.753 41.0306 167.536C40.8634 167.318 40.6427 167.147 40.3899 167.04C39.8444 166.849 39.2673 166.764 38.6899 166.79C37.2588 166.925 35.9042 167.498 34.8099 168.43L33.0599 166.43C32.9499 166.324 32.8029 166.264 32.6499 166.264C32.4969 166.264 32.3499 166.324 32.2399 166.43C32.1199 166.525 32.042 166.663 32.0233 166.814C32.0046 166.966 32.0465 167.119 32.1399 167.24L33.8799 169.24C33.0757 169.926 32.3987 170.749 31.8799 171.67C31.421 172.467 31.2119 173.383 31.2799 174.3C31.3446 175.119 31.6666 175.896 32.1999 176.52C32.6031 176.991 33.1102 177.361 33.6811 177.603C34.2521 177.844 34.8713 177.949 35.4899 177.91C36.9064 177.741 38.2702 177.27 39.4899 176.53L39.9199 176.31L42.7799 179.64C42.2053 180.09 41.508 180.355 40.7799 180.4C40.2893 180.415 39.8023 180.312 39.3599 180.1C39.016 179.949 38.6338 179.907 38.2652 179.98C37.8966 180.053 37.5596 180.238 37.2999 180.51C37.1149 180.68 36.973 180.891 36.8861 181.127C36.7991 181.362 36.7696 181.615 36.7999 181.865C36.8302 182.114 36.9195 182.352 37.0603 182.56C37.2012 182.768 37.3896 182.939 37.6099 183.06C38.4093 183.46 39.2965 183.653 40.1899 183.62C41.8023 183.459 43.322 182.79 44.5299 181.71L46.2699 183.71C46.3758 183.822 46.5206 183.889 46.6744 183.897C46.8282 183.905 46.9792 183.853 47.0961 183.753C47.213 183.653 47.2869 183.512 47.3025 183.358C47.3181 183.205 47.2742 183.052 47.1799 182.93L45.4399 180.93C46.2298 180.226 46.9046 179.403 47.4399 178.49C47.9357 177.619 48.1521 176.618 48.0599 175.62C47.9893 174.71 47.6401 173.844 47.0599 173.14C46.4955 172.435 45.7326 171.916 44.8699 171.65ZM35.6199 174.55C35.4335 174.567 35.2458 174.539 35.072 174.47C34.8983 174.4 34.7434 174.291 34.6199 174.15C34.4889 174.001 34.3995 173.819 34.3609 173.625C34.3223 173.43 34.3357 173.228 34.3999 173.04C34.6353 172.338 35.0611 171.715 35.6299 171.24L37.7999 173.77C37.1206 174.147 36.3842 174.411 35.6199 174.55ZM44.7499 177.13C44.584 177.783 44.2374 178.375 43.7499 178.84L41.0499 175.72C41.5299 175.473 41.8632 175.303 42.0499 175.21C42.4843 174.996 42.9662 174.896 43.4499 174.92C43.8023 174.96 44.1252 175.136 44.3499 175.41C44.5508 175.643 44.6922 175.921 44.7618 176.221C44.8315 176.52 44.8274 176.832 44.7499 177.13Z" fill="white"/>
<path d="M166.66 53.8079C173.71 45.055 172.33 32.2443 163.577 25.1943C154.824 18.1442 142.013 19.5246 134.963 28.2774C127.913 37.0303 129.294 49.841 138.046 56.891C146.799 63.9411 159.61 62.5607 166.66 53.8079Z" fill="url(#paint7_linear_197_62)"/>
<path d="M153.22 59.33C149.606 59.8131 145.929 59.2131 142.656 57.6062C139.383 55.9992 136.66 53.4574 134.832 50.3024C133.004 47.1474 132.153 43.5211 132.386 39.8822C132.62 36.2433 133.927 32.7555 136.144 29.8601C138.36 26.9646 141.386 24.7917 144.837 23.6163C148.289 22.4408 152.012 22.3157 155.535 23.2568C159.058 24.1978 162.222 26.1627 164.628 28.9028C167.034 31.6429 168.573 35.035 169.05 38.65C169.681 43.4895 168.37 48.3819 165.403 52.2573C162.437 56.1327 158.056 58.6757 153.22 59.33ZM148.57 23.91C145.177 24.3546 141.992 25.7953 139.418 28.05C136.844 30.3047 134.997 33.2721 134.109 36.5769C133.222 39.8817 133.334 43.3754 134.433 46.6162C135.531 49.8571 137.566 52.6994 140.279 54.7837C142.993 56.868 146.264 58.1007 149.679 58.3259C153.093 58.5511 156.498 57.7587 159.462 56.0488C162.426 54.3389 164.816 51.7885 166.331 48.72C167.845 45.6514 168.416 42.2027 167.97 38.81C167.372 34.2612 164.993 30.1358 161.356 27.34C157.718 24.5443 153.119 23.307 148.57 23.9V23.91Z" fill="white"/>
<path d="M157.59 41.02C156.969 40.3307 156.175 39.8197 155.29 39.54C153.955 39.1653 152.584 38.9339 151.2 38.85L150.69 35.01C151.195 35.0018 151.695 35.1114 152.15 35.33C152.451 35.5015 152.71 35.737 152.91 36.02C153.144 36.3335 153.461 36.5761 153.824 36.7208C154.188 36.8655 154.584 36.9068 154.97 36.84C155.269 36.8116 155.555 36.7059 155.8 36.5335C156.046 36.361 156.242 36.1277 156.37 35.8564C156.498 35.5851 156.554 35.2851 156.531 34.9859C156.508 34.6868 156.408 34.3987 156.24 34.15C155.852 33.6513 155.374 33.2306 154.83 32.91C153.443 32.1788 151.865 31.8925 150.31 32.09L149.93 29.18C149.919 29.094 149.891 29.011 149.848 28.9358C149.804 28.8606 149.747 28.7947 149.678 28.7418C149.609 28.6888 149.531 28.65 149.447 28.6273C149.363 28.6047 149.276 28.5989 149.19 28.61C149.104 28.6212 149.021 28.6492 148.946 28.6924C148.871 28.7356 148.805 28.7933 148.752 28.862C148.699 28.9307 148.66 29.0091 148.637 29.0929C148.615 29.1766 148.609 29.264 148.62 29.35L149 32.24C147.86 32.3814 146.754 32.7197 145.73 33.24C144.844 33.683 144.11 34.3791 143.62 35.24C143.186 36.0222 143.014 36.923 143.13 37.81C143.216 38.4811 143.459 39.1226 143.837 39.6834C144.216 40.2443 144.72 40.7088 145.31 41.04C146.705 41.7439 148.238 42.1331 149.8 42.18H150.32L150.95 46.95C150.168 47.0061 149.387 46.836 148.7 46.46C148.242 46.1784 147.857 45.7909 147.58 45.33C147.355 44.987 147.03 44.7214 146.649 44.5694C146.268 44.4173 145.849 44.3861 145.45 44.48C145.179 44.5232 144.923 44.6308 144.703 44.7937C144.483 44.9567 144.305 45.1701 144.184 45.4161C144.064 45.6621 144.004 45.9335 144.01 46.2074C144.016 46.4813 144.088 46.7497 144.22 46.99C144.704 47.8168 145.393 48.5055 146.22 48.99C147.783 49.8187 149.573 50.117 151.32 49.84L151.7 52.74C151.739 52.8969 151.835 53.0338 151.969 53.1248C152.103 53.2157 152.265 53.2544 152.426 53.2334C152.586 53.2125 152.733 53.1333 152.839 53.011C152.945 52.8887 153.002 52.7318 153 52.57L152.62 49.67C153.75 49.512 154.847 49.1745 155.87 48.67C156.841 48.1689 157.636 47.3841 158.15 46.42C158.622 45.5349 158.807 44.525 158.68 43.53C158.56 42.6074 158.182 41.7374 157.59 41.02ZM147.42 38.15C147.229 38.0548 147.065 37.9135 146.943 37.7388C146.821 37.5642 146.744 37.3618 146.72 37.15C146.688 36.9348 146.714 36.7149 146.795 36.5129C146.875 36.3109 147.008 36.1339 147.18 36C147.814 35.4958 148.576 35.1773 149.38 35.08L149.85 38.69C149.015 38.6474 148.194 38.4648 147.42 38.15ZM154.21 45.95C153.65 46.4542 152.955 46.7843 152.21 46.9L151.63 42.45C152.22 42.52 152.63 42.57 152.89 42.62C153.416 42.6827 153.917 42.8751 154.35 43.18C154.645 43.4359 154.834 43.7924 154.88 44.18C154.915 44.507 154.873 44.8376 154.757 45.1452C154.64 45.4528 154.453 45.7285 154.21 45.95Z" fill="white"/>
<path d="M219.54 141.56C221.15 149.17 221.9 157.56 225.07 164.61C228.57 172.45 214.5 173.55 212.98 169.73C208.98 159.53 203.5 151.3 200.73 140.73C199.3 135.26 199.73 116.66 209.19 118.05C216.05 119.03 218.39 136.15 219.54 141.56Z" fill="#FFB380"/>
<path d="M156.87 74.16C153.14 79.7 151.87 88.91 151.87 92.83C151.87 100.13 147.16 103.34 139.46 102.28C150.95 117.28 160.46 108.99 161.64 102.28C162.04 99.99 163.46 92.01 165.02 90.28C168.84 86.08 176.67 86.72 173.6 75.61C171.05 66.4 160.8 68.33 156.87 74.16Z" fill="url(#paint8_linear_197_62)"/>
<path d="M209.19 118.01C198.41 115.84 191.62 108.33 179.79 111.01L155.72 118.33C155.72 118.33 151 142.57 154.34 148.68C159.25 165.94 163.79 167.99 163.92 180.37C164.02 190.68 154.67 206.86 154.45 212.93C164.56 217.29 201.32 218.11 215.72 213.74C215.72 213.74 212.4 201.09 206.85 180.96C203.58 169.06 204.73 165.33 209.19 149.45C212.51 135.73 213.59 126.41 209.19 118.01Z" fill="url(#paint9_linear_197_62)"/>
<path d="M174.87 118.33C174.53 124.68 178.44 142.38 190.52 139.52C202.84 136.6 195.11 118.45 195.18 117.09C193.974 112.091 192.488 107.163 190.73 102.33C188.73 97.26 175.95 91.91 175.79 98.84C175.61 106.67 175.05 112.84 174.87 118.33Z" fill="#F78E69"/>
<path d="M190.36 110.76C199.56 110.76 204.41 98.86 203.52 84.43C203.24 79.93 202.93 76.69 202.11 74.69C198.78 66.59 187.69 68.2 183.29 68.83C171.39 70.53 167.54 79.3 167.54 81.83C167.54 89.99 170.22 97.25 175.98 102.31C180.53 106.27 183.11 110.75 190.36 110.76Z" fill="#FFB380"/>
<path d="M192.82 64.04C187.02 64.04 174.82 61.61 167.54 75.16C165.11 79.66 164.95 86.54 166.79 91.32C170.28 100.42 174.36 101.44 175.98 102.32C175.17 98 174.72 95.05 174.72 95.05C174.72 95.05 170.65 95.54 170.33 90.05C169.88 82.27 175.33 88.58 175.33 88.58C175.33 86.09 175.06 80.41 177 79.3C180.27 75.16 187.42 73.9 192.79 73.58C196.574 74.3588 200.077 76.145 202.93 78.75C209.19 72.41 201.31 65.12 192.82 64.04Z" fill="url(#paint10_linear_197_62)"/>
<path d="M208.96 378.19C215.24 380.19 227.37 379.73 226.4 374.8C226.4 374.8 220.5 370.66 220.29 369.72C219.51 366.22 221.02 355.97 222.48 344.58C222.48 344.58 210.26 340.33 208.96 344.58C208.96 344.58 209.38 363.51 208.73 366.91C207.64 372.6 205.33 377.03 208.96 378.19Z" fill="#FFB380"/>
<path d="M117.85 337.51C116.43 338.51 114.85 339.6 114.18 341.22C113.37 343.07 113.86 345.22 114.48 347.13C117.04 355.24 123.41 364.19 126.18 364.19C128.71 364.19 128.74 351.74 128.86 354.46C129.12 360.35 126.48 345.19 128.31 343.65C132.16 340.41 137.2 337.11 144.95 331.35C150.01 327.59 137.3 317.35 135.58 319.84C130.708 326.687 124.713 332.661 117.85 337.51Z" fill="#FFB380"/>
<path d="M161.34 292.33C160.44 295.27 153.01 296.73 135.58 319.83C137.2 324.1 140.69 330.73 144.95 331.34C158.78 319.34 173.79 311.43 177.65 298.2C183.98 276.53 180.65 258.99 187.2 237.37C194.13 255.8 205.7 279.52 205.33 299.21C204.9 322.16 207.33 323.89 208.96 344.57C211.96 345.16 222.22 347.65 222.48 344.57C228.22 275.81 223.74 263.57 215.72 213.72C215.48 212.25 188.11 205.85 176.78 204.35C172.37 203.76 158.72 211.68 154.45 212.91C154.45 212.92 162.54 288.38 161.34 292.33Z" fill="#2C3768"/>
<path d="M110.86 342.69C110.99 345.52 113.7 350.61 114.86 353.18L117.53 359.11C120.15 364.92 126.18 372.9 129.17 372.9C132.16 372.9 129.95 360.78 128.05 351.9C123.41 352.9 116.4 340.59 119.21 336.54C119.21 336.5 110.64 337.99 110.86 342.69Z" fill="url(#paint11_linear_197_62)"/>
<path d="M226.4 374.8C227.03 374.41 250.13 383.2 241.81 385.49C237.08 386.79 216.55 387.98 207.31 381.93C204.13 379.84 207.31 372.93 207.31 372.93C210.94 374.81 218.53 379.75 226.4 374.8Z" fill="url(#paint12_linear_197_62)"/>
<path d="M254.182 142.408L97.6796 156.981C93.8302 157.34 91.0003 160.751 91.3587 164.6L100.088 258.345C100.447 262.194 103.858 265.024 107.707 264.665L264.21 250.092C268.059 249.734 270.889 246.323 270.531 242.473L261.801 148.729C261.443 144.879 258.032 142.049 254.182 142.408Z" fill="url(#paint13_linear_197_62)"/>
<path style="mix-blend-mode:multiply" opacity="0.2" d="M269.48 231.33L270.48 242.45C270.565 243.366 270.469 244.29 270.197 245.169C269.925 246.048 269.483 246.865 268.895 247.572C268.307 248.28 267.585 248.865 266.771 249.293C265.957 249.722 265.066 249.986 264.15 250.07L107.7 264.66C106.782 264.75 105.854 264.657 104.972 264.386C104.09 264.116 103.269 263.674 102.558 263.086C101.847 262.498 101.26 261.775 100.829 260.959C100.399 260.142 100.134 259.249 100.05 258.33L91.33 164.6C91.2432 163.684 91.3379 162.76 91.6087 161.88C91.8795 161.001 92.321 160.183 92.908 159.475C93.495 158.766 94.2159 158.18 95.0296 157.75C95.8433 157.32 96.7338 157.055 97.65 156.97L105.65 156.23L111.65 220.66C111.963 224.024 112.935 227.294 114.511 230.283C116.087 233.272 118.237 235.921 120.837 238.079C123.437 240.237 126.436 241.862 129.664 242.861C132.892 243.859 136.286 244.213 139.65 243.9L265.24 232.21C266.683 232.083 268.106 231.788 269.48 231.33Z" fill="url(#paint14_linear_197_62)"/>
<path d="M224.05 230.87C223.866 228.919 224.2 226.955 225.019 225.174C225.837 223.394 227.11 221.861 228.71 220.73C226.928 219.908 224.962 219.57 223.008 219.75C221.054 219.93 219.183 220.621 217.581 221.754C215.979 222.887 214.704 224.422 213.884 226.205C213.064 227.987 212.728 229.954 212.91 231.907C213.091 233.861 213.784 235.732 214.919 237.333C216.054 238.933 217.59 240.207 219.373 241.025C221.156 241.844 223.123 242.178 225.076 241.994C227.03 241.811 228.9 241.116 230.5 239.98C228.719 239.162 227.185 237.89 226.053 236.29C224.92 234.691 224.23 232.821 224.05 230.87Z" fill="url(#paint15_linear_197_62)"/>
<path d="M234.11 218.71C232.159 218.889 230.29 219.579 228.69 220.71C230.473 221.526 232.009 222.797 233.144 224.396C234.279 225.995 234.972 227.865 235.154 229.817C235.335 231.769 234.999 233.735 234.178 235.516C233.358 237.297 232.082 238.83 230.48 239.96C232.037 240.676 233.737 241.024 235.45 240.978C237.163 240.931 238.842 240.491 240.358 239.692C241.874 238.892 243.185 237.755 244.191 236.368C245.197 234.98 245.87 233.38 246.158 231.691C246.446 230.002 246.342 228.269 245.853 226.627C245.365 224.984 244.505 223.476 243.34 222.219C242.175 220.963 240.737 219.99 239.136 219.378C237.536 218.766 235.816 218.531 234.11 218.69V218.71Z" fill="url(#paint16_linear_197_62)"/>
<path d="M235.15 229.84C234.968 227.888 234.275 226.018 233.141 224.419C232.007 222.82 230.472 221.547 228.69 220.73C227.091 221.862 225.817 223.396 224.999 225.176C224.18 226.956 223.845 228.921 224.026 230.872C224.207 232.823 224.899 234.692 226.032 236.291C227.165 237.89 228.699 239.162 230.48 239.98C232.08 238.849 233.354 237.316 234.174 235.536C234.994 233.756 235.33 231.791 235.15 229.84Z" fill="white"/>
<path d="M237.65 164.74L215.82 166.74C214.907 166.815 214.018 167.07 213.204 167.491C212.39 167.912 211.668 168.49 211.079 169.192C210.49 169.894 210.046 170.706 209.773 171.58C209.5 172.455 209.403 173.375 209.487 174.287C209.572 175.199 209.836 176.085 210.266 176.895C210.695 177.704 211.281 178.42 211.989 179.002C212.697 179.583 213.513 180.019 214.39 180.283C215.268 180.547 216.189 180.634 217.1 180.54L238.93 178.54C240.746 178.352 242.414 177.456 243.573 176.045C244.731 174.635 245.286 172.824 245.118 171.007C244.949 169.189 244.07 167.512 242.672 166.338C241.274 165.165 239.469 164.591 237.65 164.74Z" fill="url(#paint17_linear_197_62)"/>
<path d="M141.153 207.24L118.511 209.348L119.52 220.191L142.162 218.083L141.153 207.24Z" fill="white"/>
<path d="M167.768 204.762L145.126 206.871L146.136 217.714L168.778 215.605L167.768 204.762Z" fill="white"/>
<path d="M194.394 202.285L171.752 204.393L172.762 215.236L195.404 213.128L194.394 202.285Z" fill="white"/>
<path d="M221.02 199.806L198.378 201.915L199.387 212.758L222.029 210.649L221.02 199.806Z" fill="white"/>
<path d="M247.645 197.329L225.003 199.437L226.013 210.28L248.655 208.172L247.645 197.329Z" fill="white"/>
<path d="M139.788 175.234L119.476 177.126C117.793 177.282 116.556 178.773 116.712 180.456L118.038 194.695C118.195 196.377 119.686 197.614 121.369 197.458L141.681 195.566C143.364 195.41 144.601 193.918 144.444 192.236L143.118 177.997C142.962 176.315 141.47 175.078 139.788 175.234Z" fill="url(#paint18_linear_197_62)"/>
<path d="M130.204 182.872L123.324 183.513C121.675 183.667 120.462 185.129 120.615 186.778L120.708 187.774C120.862 189.424 122.324 190.637 123.973 190.483L130.854 189.842C132.503 189.689 133.716 188.227 133.562 186.577L133.47 185.581C133.316 183.932 131.854 182.719 130.204 182.872Z" stroke="#D17B1E" stroke-miterlimit="10"/>
<path d="M133.51 186.09L143.77 185.13" stroke="#D17B1E" stroke-miterlimit="10"/>
<path d="M126.76 183.2L126.14 176.52" stroke="#D17B1E" stroke-miterlimit="10"/>
<path d="M117.87 193L144.27 190.54" stroke="#D17B1E" stroke-miterlimit="10"/>
<path d="M127.59 192.09L128.03 196.85" stroke="#D17B1E" stroke-miterlimit="10"/>
<path d="M138.64 185.61L137.69 175.44" stroke="#D17B1E" stroke-miterlimit="10"/>
<path d="M180.89 202.54C188.04 205.68 193.12 207.26 190.73 208.21C189.82 208.57 189.31 209.29 186.24 208.57C194.24 219.88 193.24 222.66 191.7 221.73C190.7 221.13 187.98 213.39 186.7 214.14C185.8 214.68 188.13 224.08 187.08 224.66C186.03 225.24 183.5 215.74 182.96 215.79C181.18 215.96 183.74 225.53 182.74 225.63C180.74 225.83 179.82 218.15 179.18 216.48C178.86 215.65 178 223.29 177.4 223.22C175.48 222.99 176.49 215.42 176.27 214.71C174.738 209.699 171.73 205.266 167.64 201.99C151.88 189.78 148.31 187.99 138.53 177.99C133.91 173.31 141.62 161.42 150.68 167.61C164.13 176.81 173.8 199.43 180.89 202.54Z" fill="#FFB380"/>
<path d="M145.36 134.81C141.69 144.12 138.98 164.08 137.22 173.93C136.62 177.32 148.72 177.37 149.08 176.52C155.74 160.82 159.08 155.45 165.98 133.08C167.83 127.08 165.08 116.08 155.72 118.32C149.66 119.77 147.35 129.76 145.36 134.81Z" fill="#FFB380"/>
<path d="M221.59 151.81C221.29 153.81 222.45 153.73 223.05 152.81C224.05 151.28 225.9 145.65 226.83 145.62C227.23 145.73 226.35 148.83 225.58 150.83C225.29 151.58 224.32 153.83 225.66 154.22C227.09 154.22 229.66 145.34 230.57 145.66C231.5 145.76 229.02 152.44 229.13 153.61C229.76 155.19 230.77 153.76 231.2 152.78C232.34 150.21 233.63 145.78 234.41 145.78C234.86 145.84 231.98 152.7 233.36 153.35C233.72 153.72 234.71 152.23 234.97 151.78C236.18 149.71 236.18 148.95 237.04 146.71C237.58 145.27 237.99 143.22 236.77 142.29C236.15 141.8 235.77 142.05 235.13 141.95C234.28 141.82 233.78 141 233.29 141.11C232.8 141.22 231.68 142.11 230.71 141.11C229.74 140.11 228.28 141.68 227.71 141.76C227.14 141.84 227.28 140.65 225.61 141.59C223.11 143.05 221.96 149.25 221.59 151.81Z" fill="#FFB380"/>
<path d="M122.89 55.84C122.736 55.7212 122.556 55.6402 122.365 55.6038C122.174 55.5673 121.977 55.5763 121.79 55.63L75.3499 68.33L71.3499 60.89C71.2198 60.6374 71.0063 60.4376 70.7456 60.3246C70.485 60.2116 70.1932 60.1923 69.9199 60.27L60.5199 62.83C60.361 62.8733 60.2122 62.9475 60.082 63.0484C59.9518 63.1492 59.8427 63.2747 59.761 63.4177C59.6792 63.5608 59.6265 63.7184 59.6057 63.8818C59.5849 64.0452 59.5966 64.2111 59.6399 64.37C59.6832 64.5289 59.7574 64.6777 59.8583 64.8079C59.9591 64.9382 60.0846 65.0472 60.2276 65.1289C60.3707 65.2107 60.5283 65.2634 60.6917 65.2842C60.8551 65.305 61.021 65.2933 61.1799 65.25L69.6099 62.95L84.4599 90.76L87.6899 97.37C87.8206 97.6305 88.0375 97.8376 88.3037 97.9561C88.5699 98.0746 88.8689 98.0972 89.1499 98.02L120.05 89.56C120.209 89.5167 120.358 89.4425 120.488 89.3416C120.618 89.2408 120.727 89.1153 120.809 88.9723C120.891 88.8293 120.943 88.6716 120.964 88.5082C120.985 88.3448 120.973 88.1789 120.93 88.02C120.887 87.8611 120.812 87.7123 120.712 87.5821C120.611 87.4519 120.485 87.3428 120.342 87.2611C120.199 87.1793 120.041 87.1266 119.878 87.1058C119.715 87.085 119.549 87.0967 119.39 87.14L89.5199 95.33L87.3999 91.01L112.52 84.16L122.19 81.53C122.452 81.4564 122.684 81.2997 122.85 81.0833C123.016 80.867 123.107 80.6026 123.11 80.33L123.36 56.9C123.373 56.6985 123.337 56.4968 123.255 56.3122C123.173 56.1276 123.048 55.9656 122.89 55.84ZM120.79 64.06L112.05 66.43L111.6 60.99L120.81 58.48L120.79 64.06ZM120.7 71.87L112.7 74.05L112.28 68.97L120.74 66.67L120.7 71.87ZM80.3699 77.67L88.7699 75.38L90.7699 80.03L82.7699 82.2L80.3699 77.67ZM91.2099 74.67L99.2099 72.48L100.53 77.31L93.1399 79.31L91.2099 74.67ZM98.5899 70.06L90.2199 72.34L88.1099 67.34L97.1799 64.87L98.5899 70.06ZM99.5899 64.22L109.17 61.61L109.62 67.05L101.05 69.45L99.5899 64.22ZM101.22 79.72L102.44 84.21L96.0499 86.02L94.2199 81.7L101.22 79.72ZM103.63 79.07L110.46 77.21L110.85 81.92L104.85 83.55L103.63 79.07ZM102.97 76.65L101.66 71.82L109.83 69.59L110.25 74.67L102.97 76.65ZM85.6599 68.01L87.7699 73.01L79.1499 75.36L76.5499 70.5L85.6599 68.01ZM86.2299 88.63L83.9799 84.42L91.7199 82.31L93.5499 86.63L86.2299 88.63ZM120.62 79.33L113.32 81.33L112.93 76.62L120.68 74.51L120.62 79.33Z" fill="url(#paint19_linear_197_62)"/>
<path d="M55.37 62.33C54.9997 62.4311 54.6529 62.6042 54.3495 62.8393C54.046 63.0745 53.7919 63.3671 53.6015 63.7004C53.4112 64.0338 53.2883 64.4014 53.24 64.7822C53.1917 65.1631 53.2189 65.5497 53.32 65.92C53.4211 66.2903 53.5942 66.6371 53.8294 66.9406C54.0645 67.244 54.3571 67.4982 54.6905 67.6885C55.0238 67.8789 55.3914 68.0017 55.7723 68.05C56.1531 68.0983 56.5397 68.0711 56.91 67.97L67.79 64.97L66.25 59.33L55.37 62.33Z" fill="url(#paint20_linear_197_62)"/>
<path d="M100.25 108.94C99.1816 109.231 98.0508 109.199 97.0008 108.847C95.9507 108.496 95.0283 107.841 94.3504 106.965C93.6724 106.09 93.2693 105.033 93.1919 103.928C93.1145 102.824 93.3664 101.721 93.9156 100.759C94.4649 99.7977 95.2869 99.0206 96.2777 98.5262C97.2685 98.0317 98.3837 97.8421 99.4823 97.9813C100.581 98.1205 101.613 98.5823 102.45 99.3083C103.286 100.034 103.888 100.992 104.18 102.06C104.569 103.493 104.374 105.023 103.637 106.312C102.901 107.602 101.682 108.547 100.25 108.94ZM97.96 100.54C97.3679 100.7 96.8366 101.032 96.4332 101.494C96.0298 101.956 95.7726 102.527 95.694 103.136C95.6154 103.744 95.719 104.362 95.9916 104.911C96.2643 105.46 96.6938 105.917 97.2258 106.222C97.7578 106.527 98.3684 106.667 98.9802 106.626C99.5921 106.584 100.178 106.361 100.663 105.986C101.149 105.611 101.512 105.101 101.707 104.52C101.902 103.938 101.921 103.312 101.76 102.72C101.542 101.929 101.021 101.256 100.309 100.847C99.5972 100.439 98.7529 100.329 97.96 100.54Z" fill="url(#paint21_linear_197_62)"/>
<path d="M117.97 104.12C116.899 104.411 115.767 104.378 114.715 104.026C113.663 103.673 112.739 103.017 112.06 102.139C111.382 101.262 110.978 100.203 110.901 99.0961C110.824 97.9895 111.077 96.8848 111.628 95.9218C112.178 94.9587 113.002 94.1806 113.995 93.6857C114.988 93.1909 116.105 93.0015 117.206 93.1415C118.306 93.2815 119.341 93.7447 120.178 94.4724C121.015 95.2001 121.618 96.1598 121.91 97.23C122.299 98.6661 122.103 100.198 121.364 101.489C120.626 102.781 119.405 103.727 117.97 104.12ZM115.69 95.72C115.098 95.8805 114.566 96.2132 114.163 96.6759C113.76 97.1386 113.504 97.7105 113.426 98.3191C113.348 98.9278 113.453 99.5458 113.726 100.095C114 100.644 114.431 101.1 114.964 101.404C115.496 101.708 116.108 101.848 116.72 101.804C117.332 101.761 117.917 101.537 118.402 101.161C118.887 100.784 119.249 100.273 119.442 99.6905C119.636 99.1083 119.653 98.4817 119.49 97.89C119.272 97.0992 118.75 96.4268 118.038 96.0201C117.326 95.6133 116.482 95.5054 115.69 95.72Z" fill="url(#paint22_linear_197_62)"/>
<path d="M220.88 20.65C224.15 13.79 229.42 -2.57999 240.23 2.77001C250.12 7.67001 240.45 21.01 238.23 27.65C237.86 28.76 239.54 29.53 239.9 28.41C242.25 21.22 252.19 6.41001 240.9 1.13001C228.84 -4.51999 223.03 12.4 219.47 20.05C219.39 20.2277 219.385 20.4297 219.454 20.6116C219.523 20.7936 219.662 20.9405 219.84 21.02C220.018 21.0996 220.22 21.1053 220.401 21.0359C220.583 20.9665 220.73 20.8277 220.81 20.65H220.88Z" fill="url(#paint23_linear_197_62)"/>
<path d="M255.196 30.4885L219.026 14.0507L199.936 56.0563L236.106 72.4942L255.196 30.4885Z" fill="url(#paint24_linear_197_62)"/>
<path d="M199.96 56.04L195.91 48.28L214.35 7.70001L219.04 14.04L199.96 56.04Z" fill="url(#paint25_linear_197_62)"/>
<path d="M214.35 7.70001L251.63 24.64L255.22 30.47L219.04 14.04L214.35 7.70001Z" fill="#2C3768"/>
<path d="M227.12 24.43C226.994 24.6949 226.793 24.9167 226.542 25.0679C226.291 25.219 226.001 25.2927 225.708 25.2797C225.415 25.2667 225.132 25.1676 224.896 24.9948C224.659 24.822 224.478 24.5832 224.377 24.3082C224.275 24.0333 224.256 23.7344 224.324 23.4491C224.391 23.1638 224.541 22.9046 224.755 22.7041C224.969 22.5036 225.237 22.3707 225.526 22.3219C225.815 22.2732 226.112 22.3108 226.38 22.43C226.562 22.5108 226.725 22.6272 226.861 22.7721C226.997 22.9171 227.102 23.0878 227.171 23.2741C227.24 23.4605 227.271 23.6588 227.262 23.8573C227.254 24.0558 227.205 24.2505 227.12 24.43Z" fill="#2C3768"/>
<path d="M245.69 32.87C245.564 33.1314 245.363 33.3499 245.114 33.4983C244.864 33.6467 244.577 33.7184 244.287 33.7045C243.997 33.6906 243.717 33.5917 243.483 33.4202C243.249 33.2487 243.07 33.012 242.969 32.7398C242.869 32.4675 242.85 32.1716 242.916 31.8889C242.983 31.6062 243.13 31.3493 243.341 31.15C243.553 30.9507 243.818 30.8179 244.104 30.7681C244.39 30.7183 244.684 30.7538 244.95 30.87C245.132 30.9508 245.295 31.0672 245.431 31.2121C245.567 31.3571 245.672 31.5278 245.741 31.7141C245.81 31.9005 245.841 32.0987 245.832 32.2973C245.824 32.4958 245.775 32.6905 245.69 32.87Z" fill="#2C3768"/>
<path d="M226.45 24.08C228.45 19.78 229.95 15.08 232.75 11.17C235.93 6.74001 243.13 2.40001 247.83 7.53001C253.89 14.13 246.45 25.37 243.49 31.82C243.41 32.0378 243.415 32.2778 243.505 32.4919C243.594 32.706 243.761 32.8784 243.972 32.9745C244.184 33.0706 244.423 33.0834 244.643 33.0102C244.864 32.9371 245.048 32.7834 245.16 32.58C248.36 25.58 257.21 10.66 247.16 4.86001C243.04 2.48001 237.9 3.86001 234.49 6.86001C229.54 11.13 227.76 17.75 225.1 23.48C225.041 23.6536 225.049 23.8428 225.122 24.0109C225.195 24.179 225.328 24.314 225.494 24.3899C225.661 24.4659 225.85 24.4772 226.025 24.4218C226.199 24.3664 226.347 24.2482 226.44 24.09L226.45 24.08Z" fill="url(#paint26_linear_197_62)"/>
<path d="M53.9463 98.2621L33.8715 118.337C33.4185 118.79 33.4185 119.524 33.8715 119.977L73.321 159.427C73.774 159.88 74.5085 159.88 74.9615 159.427L95.0363 139.352C95.4893 138.899 95.4892 138.165 95.0362 137.712L55.5867 98.2621C55.1337 97.8091 54.3993 97.8091 53.9463 98.2621Z" fill="url(#paint27_linear_197_62)"/>
<path d="M58.1181 102.915L38.5242 122.509L70.7824 154.767L90.3763 135.173L58.1181 102.915Z" fill="url(#paint28_linear_197_62)"/>
<path d="M84.5498 145.33C84.8546 145.633 85.0625 146.02 85.1472 146.441C85.232 146.862 85.1897 147.299 85.0259 147.696C84.862 148.094 84.5839 148.433 84.2267 148.672C83.8696 148.911 83.4496 149.039 83.0199 149.039C82.5901 149.039 82.1701 148.911 81.813 148.672C81.4558 148.433 81.1777 148.094 81.0138 147.696C80.85 147.299 80.8077 146.862 80.8925 146.441C80.9772 146.02 81.1851 145.633 81.4899 145.33C81.8964 144.926 82.4465 144.699 83.0199 144.699C83.5932 144.699 84.1433 144.926 84.5498 145.33Z" fill="url(#paint29_linear_197_62)"/>
<path d="M50.88 106.61C51.3881 106.61 51.8 106.198 51.8 105.69C51.8 105.182 51.3881 104.77 50.88 104.77C50.3719 104.77 49.96 105.182 49.96 105.69C49.96 106.198 50.3719 106.61 50.88 106.61Z" fill="url(#paint30_linear_197_62)"/>
<path d="M47.79 107.48L43.05 112.19C42.9054 112.367 42.8319 112.592 42.8438 112.82C42.8557 113.048 42.9522 113.264 43.1145 113.425C43.2768 113.586 43.4932 113.681 43.7217 113.691C43.9501 113.701 44.1741 113.626 44.35 113.48L49.06 108.77C49.145 108.685 49.2124 108.585 49.2584 108.474C49.3044 108.364 49.3281 108.245 49.3281 108.125C49.3281 108.005 49.3044 107.886 49.2584 107.776C49.2124 107.665 49.145 107.565 49.06 107.48C48.8889 107.317 48.6615 107.226 48.425 107.226C48.1885 107.226 47.9611 107.317 47.79 107.48Z" fill="url(#paint31_linear_197_62)"/>
<path d="M51.12 128.06C51.18 126.19 51.24 124.33 51.29 122.46C51.4601 120.754 51.4601 119.036 51.29 117.33C51.2536 117.226 51.186 117.137 51.0964 117.073C51.0068 117.01 50.8998 116.976 50.79 116.976C50.6803 116.976 50.5732 117.01 50.4837 117.073C50.3941 117.137 50.3264 117.226 50.29 117.33C50.125 119.036 50.125 120.754 50.29 122.46C50.29 124.33 50.4 126.19 50.46 128.06C50.46 128.155 50.498 128.247 50.5655 128.315C50.633 128.382 50.7246 128.42 50.82 128.42C50.9155 128.42 51.0071 128.382 51.0746 128.315C51.1421 128.247 51.18 128.155 51.18 128.06H51.12Z" fill="white"/>
<path d="M58.3799 137.71C58.4699 130.38 59.0199 122.89 58.5599 115.58C58.5599 115.447 58.5072 115.32 58.4135 115.226C58.3197 115.133 58.1925 115.08 58.0599 115.08C57.9273 115.08 57.8001 115.133 57.7064 115.226C57.6126 115.32 57.5599 115.447 57.5599 115.58C57.1099 122.89 57.6499 130.38 57.7399 137.71C57.7399 137.795 57.7736 137.876 57.8336 137.936C57.8937 137.996 57.975 138.03 58.0599 138.03C58.1448 138.03 58.2262 137.996 58.2862 137.936C58.3462 137.876 58.3799 137.795 58.3799 137.71Z" fill="white"/>
<path d="M67.32 144.54C67.32 136.07 67.54 127.54 67.15 119.11C67.1355 119.021 67.0898 118.94 67.0211 118.882C66.9524 118.823 66.8652 118.791 66.775 118.791C66.6849 118.791 66.5977 118.823 66.529 118.882C66.4603 118.94 66.4146 119.021 66.4 119.11C66.01 127.57 66.22 136.11 66.22 144.54C66.22 144.686 66.278 144.826 66.3811 144.929C66.4843 145.032 66.6242 145.09 66.77 145.09C66.9159 145.09 67.0558 145.032 67.1589 144.929C67.2621 144.826 67.32 144.686 67.32 144.54Z" fill="white"/>
<path d="M75.5699 138.42C75.5699 134.58 75.7099 130.71 75.4799 126.88C75.4799 126.819 75.4557 126.761 75.4125 126.717C75.3694 126.674 75.3109 126.65 75.2499 126.65C75.1889 126.65 75.1304 126.674 75.0873 126.717C75.0441 126.761 75.0199 126.819 75.0199 126.88C74.7899 130.71 74.9299 134.58 74.9299 138.42C74.9299 138.505 74.9636 138.586 75.0236 138.646C75.0836 138.706 75.165 138.74 75.2499 138.74C75.3348 138.74 75.4161 138.706 75.4762 138.646C75.5362 138.586 75.5699 138.505 75.5699 138.42Z" fill="white"/>
</g>
<defs>
<linearGradient id="paint0_linear_197_62" x1="26.0479" y1="282.09" x2="80.3772" y2="266.398" gradientUnits="userSpaceOnUse">
<stop stop-color="#F78D97"/>
<stop offset="1" stop-color="#EE5291"/>
</linearGradient>
<linearGradient id="paint1_linear_197_62" x1="67.7522" y1="289.439" x2="114.23" y2="291.842" gradientUnits="userSpaceOnUse">
<stop stop-color="#F38A98"/>
<stop offset="1" stop-color="#6C3392"/>
</linearGradient>
<linearGradient id="paint2_linear_197_62" x1="310.257" y1="222.222" x2="367.323" y2="243.286" gradientUnits="userSpaceOnUse">
<stop stop-color="#F78D97"/>
<stop offset="1" stop-color="#EE5291"/>
</linearGradient>
<linearGradient id="paint3_linear_197_62" x1="274.827" y1="257.308" x2="333.678" y2="254.255" gradientUnits="userSpaceOnUse">
<stop stop-color="#FFD887"/>
<stop offset="1" stop-color="#FFB049"/>
</linearGradient>
<linearGradient id="paint4_linear_197_62" x1="254.694" y1="113.884" x2="315.296" y2="72.2953" gradientUnits="userSpaceOnUse">
<stop stop-color="#F8EC3B"/>
<stop offset="1" stop-color="#F4855C"/>
</linearGradient>
<linearGradient id="paint5_linear_197_62" x1="273.85" y1="160.18" x2="314.78" y2="160.18" gradientUnits="userSpaceOnUse">
<stop stop-color="#F8EC3B"/>
<stop offset="1" stop-color="#F4855C"/>
</linearGradient>
<linearGradient id="paint6_linear_197_62" x1="38.5377" y1="192.304" x2="41.2653" y2="155.005" gradientUnits="userSpaceOnUse">
<stop stop-color="#F8EC3B"/>
<stop offset="1" stop-color="#F4855C"/>
</linearGradient>
<linearGradient id="paint7_linear_197_62" x1="138.413" y1="57.178" x2="163.201" y2="24.8971" gradientUnits="userSpaceOnUse">
<stop stop-color="#F8EC3B"/>
<stop offset="1" stop-color="#F4855C"/>
</linearGradient>
<linearGradient id="paint8_linear_197_62" x1="139.45" y1="89.96" x2="174.29" y2="89.96" gradientUnits="userSpaceOnUse">
<stop stop-color="#F37D6B"/>
<stop offset="1" stop-color="#E52581"/>
</linearGradient>
<linearGradient id="paint9_linear_197_62" x1="153.14" y1="163.54" x2="215.72" y2="163.54" gradientUnits="userSpaceOnUse">
<stop stop-color="#F38A98"/>
<stop offset="1" stop-color="#6C3392"/>
</linearGradient>
<linearGradient id="paint10_linear_197_62" x1="166.455" y1="77.1102" x2="200.588" y2="88.2485" gradientUnits="userSpaceOnUse">
<stop stop-color="#F37D6B"/>
<stop offset="1" stop-color="#E52581"/>
</linearGradient>
<linearGradient id="paint11_linear_197_62" x1="110.86" y1="354.7" x2="130.63" y2="354.7" gradientUnits="userSpaceOnUse">
<stop stop-color="#F37D6B"/>
<stop offset="1" stop-color="#E52581"/>
</linearGradient>
<linearGradient id="paint12_linear_197_62" x1="205.9" y1="379.73" x2="243.62" y2="379.73" gradientUnits="userSpaceOnUse">
<stop stop-color="#F37D6B"/>
<stop offset="1" stop-color="#E52581"/>
</linearGradient>
<linearGradient id="paint13_linear_197_62" x1="95.714" y1="211.478" x2="266.157" y2="195.607" gradientUnits="userSpaceOnUse">
<stop stop-color="#F37D6B"/>
<stop offset="1" stop-color="#E52581"/>
</linearGradient>
<linearGradient id="paint14_linear_197_62" x1="95.7129" y1="211.468" x2="266.156" y2="195.596" gradientUnits="userSpaceOnUse">
<stop stop-color="#F38A98"/>
<stop offset="1" stop-color="#6C3392"/>
</linearGradient>
<linearGradient id="paint15_linear_197_62" x1="212.902" y1="231.9" x2="229.59" y2="230.346" gradientUnits="userSpaceOnUse">
<stop stop-color="#F38A98"/>
<stop offset="1" stop-color="#6C3392"/>
</linearGradient>
<linearGradient id="paint16_linear_197_62" x1="229.59" y1="230.346" x2="246.268" y2="228.793" gradientUnits="userSpaceOnUse">
<stop stop-color="#F8EC3B"/>
<stop offset="1" stop-color="#F4855C"/>
</linearGradient>
<linearGradient id="paint17_linear_197_62" x1="209.558" y1="174.312" x2="245.184" y2="170.995" gradientUnits="userSpaceOnUse">
<stop stop-color="#F8EC3B"/>
<stop offset="1" stop-color="#F4855C"/>
</linearGradient>
<linearGradient id="paint18_linear_197_62" x1="117.365" y1="187.576" x2="143.771" y2="185.117" gradientUnits="userSpaceOnUse">
<stop stop-color="#FFD887"/>
<stop offset="1" stop-color="#FFB049"/>
</linearGradient>
<linearGradient id="paint19_linear_197_62" x1="64.8005" y1="83.1115" x2="126.048" y2="66.425" gradientUnits="userSpaceOnUse">
<stop stop-color="#F38A98"/>
<stop offset="1" stop-color="#6C3392"/>
</linearGradient>
<linearGradient id="paint20_linear_197_62" x1="53.3333" y1="65.9006" x2="67.0339" y2="62.1679" gradientUnits="userSpaceOnUse">
<stop stop-color="#F8EC3B"/>
<stop offset="1" stop-color="#F4855C"/>
</linearGradient>
<linearGradient id="paint21_linear_197_62" x1="93.3816" y1="105.009" x2="104.197" y2="102.062" gradientUnits="userSpaceOnUse">
<stop stop-color="#F37D6B"/>
<stop offset="1" stop-color="#E52581"/>
</linearGradient>
<linearGradient id="paint22_linear_197_62" x1="111.115" y1="100.177" x2="121.931" y2="97.2305" gradientUnits="userSpaceOnUse">
<stop stop-color="#F37D6B"/>
<stop offset="1" stop-color="#E52581"/>
</linearGradient>
<linearGradient id="paint23_linear_197_62" x1="225.06" y1="8.62881" x2="244.27" y2="17.3587" gradientUnits="userSpaceOnUse">
<stop stop-color="#F38A98"/>
<stop offset="1" stop-color="#6C3392"/>
</linearGradient>
<linearGradient id="paint24_linear_197_62" x1="209.494" y1="35.0485" x2="245.673" y2="51.4905" gradientUnits="userSpaceOnUse">
<stop stop-color="#F37D6B"/>
<stop offset="1" stop-color="#E52581"/>
</linearGradient>
<linearGradient id="paint25_linear_197_62" x1="204.014" y1="30.4626" x2="210.287" y2="33.3132" gradientUnits="userSpaceOnUse">
<stop stop-color="#F37D6B"/>
<stop offset="1" stop-color="#E52581"/>
</linearGradient>
<linearGradient id="paint26_linear_197_62" x1="230.601" y1="12.1242" x2="249.846" y2="20.8707" gradientUnits="userSpaceOnUse">
<stop stop-color="#F38A98"/>
<stop offset="1" stop-color="#6C3392"/>
</linearGradient>
<linearGradient id="paint27_linear_197_62" x1="53.5998" y1="139.706" x2="75.315" y2="117.99" gradientUnits="userSpaceOnUse">
<stop stop-color="#F38A98"/>
<stop offset="1" stop-color="#6C3392"/>
</linearGradient>
<linearGradient id="paint28_linear_197_62" x1="54.6604" y1="138.645" x2="74.2543" y2="119.051" gradientUnits="userSpaceOnUse">
<stop stop-color="#F8EC3B"/>
<stop offset="1" stop-color="#F4855C"/>
</linearGradient>
<linearGradient id="paint29_linear_197_62" x1="81.4957" y1="148.427" x2="84.5575" y2="145.366" gradientUnits="userSpaceOnUse">
<stop stop-color="#F78D97"/>
<stop offset="1" stop-color="#EE5291"/>
</linearGradient>
<linearGradient id="paint30_linear_197_62" x1="50.2346" y1="106.343" x2="51.5286" y2="105.049" gradientUnits="userSpaceOnUse">
<stop stop-color="#F78D97"/>
<stop offset="1" stop-color="#EE5291"/>
</linearGradient>
<linearGradient id="paint31_linear_197_62" x1="43.0858" y1="113.482" x2="49.0892" y2="107.479" gradientUnits="userSpaceOnUse">
<stop stop-color="#F78D97"/>
<stop offset="1" stop-color="#EE5291"/>
</linearGradient>
<clipPath id="clip0_197_62">
<rect width="379.36" height="386.54" fill="white"/>
</clipPath>
</defs>
</svg>
